<?xml version="1.0" encoding="UTF-8"?>
<svg id="Capa_2" data-name="Capa 2" xmlns="http://www.w3.org/2000/svg" viewBox="0 0 340 122.19">
  <defs>
    <style>
      .cls-1 {
        fill: none;
      }

      .cls-2 {
        fill: #465ad7;
      }

      .cls-3 {
        fill: #fafbfc;
      }
    </style>
  </defs>
  <g id="Gráfica">
    <g>
      <rect class="cls-1" width="340" height="122.19"/>
      <g>
        <rect class="cls-2" x="175.31" y="74.37" width="15.94" height="15.94"/>
        <g>
          <path class="cls-3" d="M205.94,62.85h-4.18c-.07,0-.11.05-.11.11v5.99c0,.07-.05.11-.11.11h-2.19c-.07,0-.11-.05-.11-.11v-15.69c0-.07.05-.11.11-.11h6.6c2.53,0,4.7,2.15,4.7,4.88s-2.17,4.82-4.7,4.82ZM205.69,60.65c1.31,0,2.53-1.18,2.53-2.62s-1.22-2.67-2.53-2.67h-3.93c-.07,0-.11.05-.11.09v5.09c0,.07.05.11.11.11h3.93Z"/>
          <path class="cls-3" d="M217.69,59.66c-1.83,0-2.74,1.42-2.74,2.98v6.31c0,.07-.05.11-.11.11h-2.22s-.09-.05-.09-.11v-11.21c0-.07.05-.11.09-.11h1.94c.09,0,.14.05.16.14l.23.84c.05.11.16.11.23.05.72-.72,1.54-1.24,2.62-1.24h1.2c.07,0,.11.05.11.11v2.03c0,.07-.05.11-.11.11h-1.31Z"/>
          <path class="cls-3" d="M225.56,69.29c-3.53,0-5.61-2.42-5.61-5.95s2.08-5.95,5.61-5.95,5.63,2.42,5.63,5.95-2.1,5.95-5.63,5.95ZM225.56,59.59c-2.01,0-3.16,1.51-3.16,3.75s1.15,3.75,3.16,3.75,3.19-1.51,3.19-3.75-1.13-3.75-3.19-3.75Z"/>
          <path class="cls-3" d="M238.06,69.29c-3.26,0-5.29-2.42-5.29-5.95s2.15-5.95,5.29-5.95c1.9,0,3.01,1.08,3.12,1.2.07.07.18,0,.18-.07v-5.27c0-.07.05-.11.11-.11h2.19c.07,0,.11.05.11.11v15.69c0,.07-.05.11-.11.11h-1.92c-.09,0-.14-.02-.16-.11l-.23-.81c-.05-.16-.16-.11-.25-.02-.59.59-1.92,1.18-3.05,1.18ZM238.4,67.1c1.92,0,2.96-1.56,2.96-3.75,0-2.31-1.04-3.75-2.96-3.75-2.06,0-3.19,1.56-3.19,3.75s1.13,3.75,3.19,3.75Z"/>
          <path class="cls-3" d="M251.15,69.29c-3.41,0-4.86-2.46-4.86-5.36v-6.19c0-.07.05-.11.11-.11h2.22c.07,0,.11.05.11.11v6.19c0,1.54.75,3.16,2.76,3.16,1.83,0,2.74-1.49,2.74-3.05v-6.31c0-.07.05-.11.11-.11h2.19c.07,0,.11.05.11.11v11.21c0,.07-.05.11-.11.11h-1.92c-.09,0-.14-.05-.16-.11l-.23-.86c-.05-.14-.18-.11-.25-.02-.45.61-1.6,1.22-2.83,1.22Z"/>
          <path class="cls-3" d="M269.46,61.38c.02.07-.02.11-.11.11h-2.28c-.07,0-.14-.05-.16-.11-.43-1.15-1.36-1.79-2.78-1.79-2.01,0-3.12,1.58-3.12,3.75s1.11,3.75,3.12,3.75c1.54,0,2.37-.61,2.8-1.79.02-.07.09-.11.16-.11h2.28s.14.02.11.11c-.59,2.62-2.49,3.98-5.36,3.98-3.53,0-5.56-2.42-5.56-5.95s2.03-5.95,5.56-5.95c2.87,0,4.91,1.6,5.33,3.98Z"/>
          <path class="cls-3" d="M270.23,59.66c-.07,0-.11-.05-.11-.11v-1.81c0-.07.05-.11.11-.11h1.92c.07,0,.11-.05.11-.11v-3.05c0-.07.05-.11.11-.11h2.22c.07,0,.11.05.11.11v3.05c0,.07.05.11.11.11h2.37c.07,0,.11.05.11.11v1.81c0,.07-.05.11-.11.11h-2.37c-.07,0-.11.05-.11.11v6.17c0,.57.34.93,1.02.93h1.47c.07,0,.11.05.11.11v1.97c0,.07-.05.11-.11.11h-1.76c-2.28,0-3.16-.93-3.16-3.19v-6.1c0-.07-.05-.11-.11-.11h-1.92Z"/>
          <path class="cls-3" d="M279.56,55.91c-.07,0-.11-.05-.11-.11v-2.53c0-.07.05-.11.11-.11h2.49c.07,0,.11.05.11.11v2.53c0,.07-.05.11-.11.11h-2.49ZM279.7,69.06c-.07,0-.11-.05-.11-.11v-11.21c0-.07.05-.11.11-.11h2.19c.07,0,.11.05.11.11v11.21c0,.07-.05.11-.11.11h-2.19Z"/>
          <path class="cls-3" d="M289.9,69.29c-3.53,0-5.61-2.42-5.61-5.95s2.08-5.95,5.61-5.95,5.63,2.42,5.63,5.95-2.1,5.95-5.63,5.95ZM289.9,59.59c-2.01,0-3.16,1.51-3.16,3.75s1.15,3.75,3.16,3.75,3.19-1.51,3.19-3.75-1.13-3.75-3.19-3.75Z"/>
          <path class="cls-3" d="M303.28,57.4c3.41,0,4.86,2.46,4.86,5.36v6.19c0,.07-.05.11-.11.11h-2.22c-.07,0-.11-.05-.11-.11v-6.19c0-1.54-.75-3.16-2.76-3.16-1.83,0-2.74,1.49-2.74,3.05v6.31c0,.07-.05.11-.11.11h-2.19c-.07,0-.11-.05-.11-.11v-11.21c0-.07.05-.11.11-.11h1.92c.09,0,.14.05.16.11l.23.84c.05.16.18.14.25.05.45-.61,1.61-1.22,2.83-1.22Z"/>
          <path class="cls-3" d="M204.56,90.54c-4.2,0-6.1-2.28-6.1-4.57,0-.07.05-.14.11-.14h2.31c.07,0,.11.07.11.14,0,1.11,1.33,2.37,3.57,2.37s3.53-1.18,3.53-2.6c0-1.51-1.38-2.19-3.53-2.4-3.12-.29-5.92-1.2-5.92-4.54,0-2.94,2.78-4.63,5.58-4.63s5.72,1.58,5.72,4.59c0,.07-.05.11-.11.11h-2.33c-.07,0-.11-.05-.11-.11,0-1.24-1.22-2.37-3.16-2.37-1.72,0-2.94,1.09-2.94,2.46,0,1.65,1.76,1.83,3.78,2.12,2.6.38,5.58.9,5.58,4.77,0,2.62-1.99,4.79-6.08,4.79Z"/>
          <path class="cls-3" d="M219.95,78.99c.02-.07.07-.11.14-.11h2.35s.11.02.09.11l-4.23,12.57c-.79,2.33-1.51,3.23-3.62,3.23h-3.12c-.07,0-.11-.05-.11-.11v-1.92c0-.07.05-.11.11-.11h2.65c1.79,0,1.31-1.49.93-2.67l-3.71-10.99c-.02-.07.02-.11.07-.11h2.4c.07,0,.11.05.14.11l2.85,8.93c.05.14.18.14.23,0l2.85-8.93Z"/>
          <path class="cls-3" d="M228.43,90.54c-3.41,0-5.13-1.88-5.13-3.98,0-.07.05-.11.11-.11h2.24c.07,0,.14.05.14.11,0,.93.93,1.79,2.64,1.79,1.04,0,2.55-.23,2.55-1.51,0-2.46-7.48.14-7.48-4.72,0-1.9,1.83-3.46,4.66-3.46s4.95,1.33,4.95,3.98c0,.07-.02.11-.09.11h-2.24c-.07,0-.11-.05-.11-.11,0-.93-.77-1.79-2.51-1.79-1.54,0-2.24.61-2.24,1.27,0,2.37,7.51-.2,7.51,4.72,0,2.51-2.06,3.71-5,3.71Z"/>
          <path class="cls-3" d="M234.24,80.91c-.07,0-.11-.05-.11-.11v-1.81c0-.07.05-.11.11-.11h1.92c.07,0,.11-.05.11-.11v-3.05c0-.07.05-.11.11-.11h2.22c.07,0,.11.05.11.11v3.05c0,.07.05.11.11.11h2.37c.07,0,.11.05.11.11v1.81c0,.07-.05.11-.11.11h-2.37c-.07,0-.11.05-.11.11v6.17c0,.57.34.93,1.02.93h1.47c.07,0,.11.05.11.11v1.97c0,.07-.05.11-.11.11h-1.76c-2.28,0-3.16-.93-3.16-3.19v-6.1c0-.07-.05-.11-.11-.11h-1.92Z"/>
          <path class="cls-3" d="M253.59,85.57h-8.12c-.07,0-.11.05-.11.11,0,1.45,1.15,2.67,2.96,2.67,1.29,0,2.15-.52,2.53-1.31.05-.09.09-.11.18-.11h2.26c.07,0,.18,0,.14.18-.54,2.15-2.55,3.44-5.11,3.44-3.35,0-5.52-2.42-5.52-5.95s2.1-5.95,5.52-5.95,5.52,2.49,5.52,6.01c0,.34-.05.59-.09.79-.02.07-.09.11-.16.11ZM251.1,83.53c.07,0,.11-.05.11-.11,0-1.09-.86-2.58-2.89-2.58s-2.96,1.6-2.96,2.58c0,.07.05.11.11.11h5.63Z"/>
          <path class="cls-3" d="M270.3,90.31c-.07,0-.11-.05-.11-.11v-6.24c0-1.54-.41-3.12-2.31-3.12s-2.26,1.45-2.26,3.12v6.24c0,.07-.07.11-.11.11h-2.22c-.09,0-.11-.02-.11-.11v-6.24c0-1.56-.43-3.12-2.28-3.12-1.72,0-2.28,1.45-2.28,3.12v6.24c0,.07-.05.11-.11.11h-2.19c-.07,0-.11-.05-.11-.11v-11.21c0-.07.05-.11.11-.11h1.92c.09,0,.14.05.16.14l.23.81c.05.16.16.16.25.05.47-.59,1.63-1.22,2.71-1.22,1.45,0,2.28.45,3.1,1.36.05.05.14.09.23,0,.77-.81,1.94-1.36,3.21-1.36,2.89,0,4.5,1.79,4.5,5.24v6.31c0,.07-.05.11-.11.11h-2.19Z"/>
          <path class="cls-3" d="M279.81,90.54c-3.41,0-5.13-1.88-5.13-3.98,0-.07.05-.11.11-.11h2.24c.07,0,.14.05.14.11,0,.93.93,1.79,2.64,1.79,1.04,0,2.55-.23,2.55-1.51,0-2.46-7.48.14-7.48-4.72,0-1.9,1.83-3.46,4.66-3.46s4.95,1.33,4.95,3.98c0,.07-.02.11-.09.11h-2.24c-.07,0-.11-.05-.11-.11,0-.93-.77-1.79-2.51-1.79-1.54,0-2.24.61-2.24,1.27,0,2.37,7.51-.2,7.51,4.72,0,2.51-2.06,3.71-5,3.71Z"/>
        </g>
        <path class="cls-3" d="M83.13,72.77c0,11.89-9.61,18.99-25.72,18.99-28,0-26.03-21.54-26.02-21.96h15.18c-.01.4-.02.77-.02.94.07,6.82,4.65,8.21,11.5,8.21,5.71,0,8.99-1.92,8.99-5.21,0-2.73-.94-4.4-12.47-6.23-1.23-.2-2.4-.41-3.52-.65h0s0,0,0,0c-1.14-.24-2.23-.51-3.24-.8-.34-.1-.67-.2-1-.29-9.82-3.04-14.39-8.59-14.39-17.49,0-10.67,9.62-17.85,23.93-17.85,9.92,0,17.07,2.9,21.23,8.62,4.24,5.82,3.81,12.56,3.8,12.75h-14.99c0-.35,0-.71,0-.91-.12-5.37-3.12-7.65-10.04-7.65-5.09,0-8.09,1.63-8.01,4.48.08,2.76.89,4.66,11.5,6.4,1.23.19,2.4.4,3.53.62.34.07.67.13,1.01.2.99.21,1.93.43,2.82.66,11.17,2.92,15.93,8.05,15.93,17.17ZM87.66,90.31h15.94V31.88h-15.94v58.44ZM133.81,46.29h8.63l4.05,14.8h-11.03l-2.66,13.28h17.17l3.9,15.94h16.11l-16.11-58.44h-31.53l-16.11,58.44h16.11l11.45-44.02Z"/>
      </g>
    </g>
  </g>
</svg>